# xmcd CD database file
#
# Track frame offsets:
#	150
#	9773
#	32131
#	53563
#	95768
#	118329
#	154910
#	192926
#	227941
#	255564
#	313134
#
# Disc length: 4781 seconds
#
# Revision: 1
# Processed by: cddbd v1.4PL0 Copyright (c) Steve Scherf et al.
# Submitted via: NeoAudio 9.9.9
#
DISCID=8f12ab0b
DTITLE=Gov't Mule - Live at Stubb's Bar-B-Q Austin,TX 10-25-01 CD1
DYEAR=2001
DGENRE=Blues
TTITLE0=Intro
TTITLE1=Creep
TTITLE2=She Said, She Said
TTITLE3=Thorazine Shuffle
TTITLE4=Tear Me Down
TTITLE5=Rockin' Horse
TTITLE6=Beautifully Broken
TTITLE7=Wandering Child
TTITLE8=Life Before Insanity
TTITLE9=Tomorrow Never Knows
TTITLE10=Indifference
EXTD=YEAR: 2001
EXTT0=
EXTT1=
EXTT2=
EXTT3=
EXTT4=
EXTT5=
EXTT6=
EXTT7=
EXTT8=
EXTT9=
EXTT10=
PLAYORDER=
